o Seat()_|_stand
v -0.225000 -0.115606 1.355902
v 0.225000 -0.115606 1.355902
v 0.225000 0.109394 1.355902
v -0.225000 0.109394 1.355902
v -0.225000 0.109394 0.680902
v 0.225000 0.109394 0.680902
v 0.225000 -0.115606 0.680902
v -0.225000 -0.115606 0.680902
v -0.005625 -0.115606 0.680902
v 0.219375 -0.115606 0.680902
v 0.219375 0.109394 0.680902
v -0.005625 0.109394 0.680902
v -0.005625 0.109394 0.005902
v 0.219375 0.109394 0.005902
v 0.219375 -0.115606 0.005902
v -0.005625 -0.115606 0.005902
v 0.450000 0.109394 1.355902
v 0.225000 0.109394 1.355902
v 0.225000 -0.115606 1.355902
v 0.450000 -0.115606 1.355902
v 0.450000 -0.115606 0.680902
v 0.225000 -0.115606 0.680902
v 0.225000 0.109394 0.680902
v 0.450000 0.109394 0.680902
v -0.450000 -0.115606 1.355902
v -0.225000 -0.115606 1.355902
v -0.225000 0.109394 1.355902
v -0.450000 0.109394 1.355902
v -0.450000 0.109394 0.680902
v -0.225000 0.109394 0.680902
v -0.225000 -0.115606 0.680902
v -0.450000 -0.115606 0.680902
v -0.219375 -0.115606 0.680902
v 0.005625 -0.115606 0.680902
v 0.005625 0.109394 0.680902
v -0.219375 0.109394 0.680902
v -0.219375 0.109394 0.005902
v 0.005625 0.109394 0.005902
v 0.005625 -0.115606 0.005902
v -0.219375 -0.115606 0.005902
v -0.228375 0.225269 1.352527
v 0.228375 0.225269 1.352527
v -0.228375 -0.231481 1.352527
v 0.228375 -0.231481 1.352527
v -0.228375 0.225269 1.409621
v 0.228375 0.225269 1.409621
v 0.228375 -0.231481 1.637996
v 0.228375 -0.231481 1.523808
v -0.228375 -0.231481 1.637996
v -0.228375 -0.231481 1.523808
v 0.114187 -0.231481 1.352527
v -0.114188 -0.231481 1.352527
v 0.228375 0.053988 1.409621
v 0.228375 0.053988 1.466715
v 0.228375 -0.060200 1.466715
v 0.228375 -0.174387 1.523808
v 0.228375 -0.060200 1.637996
v 0.228375 -0.174387 1.637996
v -0.228375 0.053988 1.409621
v -0.228375 0.053988 1.466715
v -0.228375 -0.060200 1.466715
v -0.228375 -0.060200 1.637996
v -0.228375 -0.174387 1.523808
v -0.228375 -0.174387 1.580902
v -0.228375 -0.174387 1.637996
v 0.114187 -0.231481 1.466715
v 0.057094 -0.231481 1.466715
v -0.057094 -0.231481 1.466715
v -0.114188 -0.231481 1.466715
v 0.171281 -0.231481 1.523808
v 0.057094 -0.231481 1.523808
v -0.057094 -0.231481 1.523808
v -0.171281 -0.231481 1.523808
v 0.171281 -0.231481 1.580902
v 0.057094 -0.231481 1.580902
v -0.057094 -0.231481 1.580902
v -0.171281 -0.231481 1.580902
v 0.171281 -0.231481 1.637996
v -0.171281 -0.231481 1.637996
v 0.171281 -0.231481 1.695090
v -0.171281 -0.231481 1.695090
v 0.114187 -0.239582 1.352527
v -0.114188 -0.239582 1.352527
v 0.057094 -0.239582 1.409621
v -0.057094 -0.239582 1.409621
v 0.114187 -0.239582 1.466715
v 0.057094 -0.239582 1.466715
v -0.057094 -0.239582 1.466715
v -0.114188 -0.239582 1.466715
v 0.057094 -0.239582 1.523808
v -0.057094 -0.239582 1.523808
v -0.171281 -0.239582 1.637996
v 0.171281 -0.239582 1.637996
v -0.171281 -0.239582 1.695090
v 0.171281 -0.239582 1.695090
v 0.236476 0.225269 1.409621
v 0.236476 -0.231481 1.637996
v 0.236476 -0.231481 1.523808
v 0.236476 0.053988 1.409621
v 0.236476 0.053988 1.466715
v 0.236476 -0.060200 1.466715
v 0.236476 -0.174387 1.523808
v 0.236476 -0.174387 1.637996
v 0.236476 -0.060200 1.637996
v 0.236476 -0.239582 1.695090
v 0.236476 -0.239582 1.637996
v -0.236476 -0.231481 1.637996
v -0.236476 -0.231481 1.523808
v -0.236476 0.053988 1.409621
v -0.236476 0.053988 1.466715
v -0.236476 -0.060200 1.466715
v -0.236476 -0.060200 1.637996
v -0.236476 -0.174387 1.523808
v -0.236476 -0.174387 1.637996
v -0.236476 -0.239582 1.637996
v 0.236476 0.233370 1.466715
v 0.236476 0.233370 1.637996
v 0.236476 0.233370 1.409621
v 0.236476 0.233370 1.809277
v -0.236476 0.233370 1.409621
v 0.236476 -0.239582 1.817378
v -0.236476 -0.239582 1.817378
v -0.236476 0.233370 1.817378
v 0.236476 0.233370 1.817378
v 0.057094 -0.223532 1.409621
v -0.057094 -0.223532 1.409621
v 0.057094 -0.223532 1.466715
v -0.057094 -0.223532 1.466715
v 0.171281 -0.223532 1.523808
v 0.057094 -0.223532 1.523808
v -0.057094 -0.223532 1.523808
v -0.171281 -0.223532 1.523808
v 0.171281 -0.223532 1.580902
v 0.057094 -0.223532 1.580902
v -0.057094 -0.223532 1.580902
v -0.171281 -0.223532 1.580902
vn -0.0000 -0.0000 1.0000
vn -0.0000 -0.0000 -1.0000
vn -0.0000 -1.0000 -0.0000
vn -0.0000 1.0000 -0.0000
vn 1.0000 -0.0000 -0.0000
vn -1.0000 -0.0000 -0.0000
vt 0.312500 0.375000
vt 0.437500 0.375000
vt 0.437500 0.500000
vt 0.312500 0.500000
vt 0.562500 0.375000
vt 0.562500 0.500000
vt 0.312500 0.000000
vt 0.437500 0.000000
vt 0.625000 0.375000
vt 0.500000 0.375000
vt 0.500000 0.000000
vt 0.625000 0.000000
vt 0.250000 0.375000
vt 0.250000 0.000000
vt 0.062500 0.375000
vt 0.125000 0.375000
vt 0.125000 0.500000
vt 0.062500 0.500000
vt 0.187500 0.375000
vt 0.187500 0.500000
vt 0.062500 0.000000
vt 0.125000 0.000000
vt 0.187500 0.000000
vt 0.000000 0.375000
vt 0.000000 0.000000
vt 0.687500 0.375000
vt 0.750000 0.375000
vt 0.750000 0.500000
vt 0.687500 0.500000
vt 0.812500 0.375000
vt 0.812500 0.500000
vt 0.687500 0.000000
vt 0.750000 0.000000
vt 0.875000 0.375000
vt 0.812500 0.000000
vt 0.875000 0.000000
vt 0.625000 0.750000
vt 0.625000 0.656250
vt 0.646484 0.679688
vt 0.644531 0.703125
vt 0.761719 0.796875
vt 0.775391 0.820312
vt 0.796875 0.843750
vt 0.781250 0.812500
vt 0.750000 0.750000
vt 0.863281 0.703125
vt 0.869141 0.695312
vt 0.833984 0.867188
vt 0.806641 0.820312
vt 0.826172 0.773438
vt 0.855469 0.796875
vt 0.828125 0.906250
vt 0.751953 0.789062
vt 0.742188 0.781250
vt 0.695312 0.718750
vt 0.701172 0.710938
vt 0.859375 0.531250
vt 0.859375 0.562500
vt 0.765625 0.562500
vt 0.765625 0.656250
vt 0.671875 0.656250
vt 0.671875 0.625000
vt 0.671875 0.593750
vt 0.625000 0.593750
vt 1.000000 0.750000
vt 1.000000 0.531250
vt 0.771484 0.804688
vt 0.707031 0.703125
vt 0.712891 0.695312
vt 0.802734 0.867188
vt 0.789062 0.843750
vt 0.648438 0.656250
vt 0.687500 0.625000
vt 0.679688 0.656250
vt 0.650391 0.632812
vt 0.812500 0.875000
vt 0.875000 1.000000
vt 0.625000 0.500000
vt 0.875000 0.531250
vt 0.875000 0.562500
vt 0.875000 0.656250
vt 0.875000 0.750000
vt 1.000000 0.500000
vt 0.875000 0.500000
s 0
f 1/1/1 2/2/1 3/3/1 4/4/1
f 5/2/2 6/5/2 7/6/2 8/3/2
f 2/2/3 1/1/3 8/7/3 7/8/3
f 4/9/4 3/10/4 6/11/4 5/12/4
f 3/10/5 2/2/5 7/8/5 6/11/5
f 1/1/6 4/13/6 5/14/6 8/7/6
f 9/15/1 10/16/1 11/17/1 12/18/1
f 13/16/2 14/19/2 15/20/2 16/17/2
f 10/16/3 9/15/3 16/21/3 15/22/3
f 12/13/4 11/19/4 14/23/4 13/14/4
f 11/19/5 10/16/5 15/22/5 14/23/5
f 9/15/6 12/24/6 13/25/6 16/21/6
f 17/26/1 18/27/1 19/28/1 20/29/1
f 21/27/2 22/30/2 23/31/2 24/28/2
f 18/27/4 17/26/4 24/32/4 23/33/4
f 20/34/3 19/30/3 22/35/3 21/36/3
f 19/30/6 18/27/6 23/33/6 22/35/6
f 17/26/5 20/9/5 21/12/5 24/32/5
f 25/26/1 26/27/1 27/28/1 28/29/1
f 29/27/2 30/30/2 31/31/2 32/28/2
f 26/27/3 25/26/3 32/32/3 31/33/3
f 28/34/4 27/30/4 30/35/4 29/36/4
f 27/30/5 26/27/5 31/33/5 30/35/5
f 25/26/6 28/9/6 29/12/6 32/32/6
f 33/15/1 34/16/1 35/17/1 36/18/1
f 37/16/2 38/19/2 39/20/2 40/17/2
f 34/16/3 33/15/3 40/21/3 39/22/3
f 36/13/4 35/19/4 38/23/4 37/14/4
f 35/19/5 34/16/5 39/22/5 38/23/5
f 33/15/6 36/24/6 37/25/6 40/21/6
f 122/37/3 115/38/3 92/39/3 94/40/3 95/41/3 93/42/3 106/43/3 105/44/3 121/45/3
f 54/46/3 53/47/3 99/47/3 100/46/3
f 56/48/4 58/49/4 103/49/4 102/48/4
f 47/43/2 97/43/2 106/43/2 93/42/2 78/42/2
f 57/50/2 104/50/2 103/49/2 58/49/2
f 54/46/2 100/46/2 101/51/2 55/51/2
f 48/52/2 56/48/2 102/48/2 98/52/2
f 71/53/3 75/54/3 76/55/3 72/56/3
f 59/57/3 60/58/3 110/58/3 109/57/3
f 61/59/3 62/60/3 112/60/3 111/59/3
f 60/58/2 61/59/2 111/59/2 110/58/2
f 65/61/4 64/62/4 63/63/4 113/63/4 114/61/4
f 63/63/2 50/64/2 108/64/2 113/63/2
f 50/64/3 49/38/3 107/38/3 108/64/3
f 123/65/6 120/66/6 109/57/6 110/58/6 111/59/6 112/60/6 114/61/6 113/63/6 108/64/6 107/38/6 115/38/6 122/37/6
f 47/43/3 48/52/3 98/52/3 97/43/3
f 125/67/3 127/41/3 128/68/3 126/69/3
f 67/41/5 71/53/5 90/53/5 87/41/5
f 72/56/6 76/55/6 135/55/6 131/56/6
f 129/70/3 133/71/3 134/54/3 130/53/3
f 76/55/2 77/72/2 136/72/2 135/55/2
f 87/41/3 90/53/3 91/56/3 88/68/3
f 52/73/3 69/74/3 68/68/3 72/56/3 73/75/3 77/72/3 76/55/3 75/54/3 74/71/3 70/70/3 71/53/3 67/41/3 66/71/3 51/76/3 44/77/3 48/52/3 47/43/3 78/42/3 80/41/3 81/40/3 79/39/3 49/38/3 50/64/3 43/78/3
f 69/74/6 52/73/6 83/73/6 89/74/6
f 79/39/5 81/40/5 94/40/5 92/39/5
f 62/60/2 65/61/2 114/61/2 112/60/2
f 71/53/1 72/56/1 91/56/1 90/53/1
f 68/68/1 69/74/1 89/74/1 88/68/1
f 67/41/2 87/41/2 88/68/2 68/68/2 128/68/2 127/41/2
f 51/76/5 66/71/5 86/71/5 82/76/5
f 85/69/1 84/67/1 125/67/1 126/69/1
f 115/38/2 107/38/2 49/38/2 79/39/2 92/39/2
f 72/56/6 68/68/6 88/68/6 91/56/6
f 80/41/6 78/42/6 93/42/6 95/41/6
f 66/71/1 67/41/1 87/41/1 86/71/1
f 67/41/6 127/41/6 125/67/6 84/67/6 87/41/6
f 96/79/5 118/79/5 116/80/5 117/81/5 119/82/5 124/82/5 121/45/5 105/44/5 106/43/5 97/43/5 98/52/5 102/48/5 103/49/5 104/50/5 101/51/5 100/46/5 99/47/5
f 122/37/1 121/45/1 124/82/1 123/65/1
f 124/82/4 119/82/4 117/81/4 116/80/4 118/79/4 120/66/4 123/65/4
f 57/50/3 55/51/3 101/51/3 104/50/3
f 53/47/2 46/79/2 45/66/2 59/57/2 109/57/2 120/66/2 118/79/2 96/79/2 99/47/2
f 80/41/2 95/41/2 94/40/2 81/40/2
f 68/68/5 88/68/5 85/69/5 126/69/5 128/68/5
f 77/72/5 73/75/5 132/75/5 136/72/5
f 73/75/1 72/56/1 131/56/1 132/75/1
f 70/70/1 129/70/1 130/53/1 71/53/1
f 70/70/6 74/71/6 133/71/6 129/70/6
f 75/54/5 71/53/5 130/53/5 134/54/5
f 131/56/3 135/55/3 136/72/3 132/75/3
f 74/71/2 75/54/2 134/54/2 133/71/2
f 41/83/6 43/78/6 50/64/6 63/63/6 64/62/6 65/61/6 62/60/6 61/59/6 60/58/6 59/57/6 45/66/6
f 44/77/5 42/84/5 46/79/5 53/47/5 54/46/5 55/51/5 57/50/5 58/49/5 56/48/5 48/52/5
f 45/66/4 46/79/4 42/84/4 41/83/4
f 44/77/2 51/76/2 82/76/2 83/73/2 52/73/2 43/78/2 41/83/2 42/84/2
f 82/76/3 86/71/3 87/41/3 84/67/3 85/69/3 88/68/3 89/74/3 83/73/3
