# Blender 5.1.0
# www.blender.org
o Seat()
v -0.203126 0.565080 -0.067413
v -0.224612 0.779067 -0.001286
v -0.401503 0.356493 0.543131
v -0.422989 0.570481 0.609257
v -0.010624 0.779067 0.068243
v 0.010862 0.565080 0.002117
v -0.209002 0.570481 0.678785
v -0.187516 0.356493 0.612660
v -0.225000 1.347074 -0.112085
v -0.225000 1.347074 0.112915
v -0.225000 0.672074 -0.112085
v -0.225000 0.672074 0.112915
v 0.225000 1.347074 0.112915
v 0.225000 1.347074 -0.112085
v 0.225000 0.672074 0.112915
v 0.225000 0.672074 -0.112085
v 0.225000 1.259462 -0.156725
v 0.225000 1.391714 0.025304
v 0.225000 0.713376 0.240030
v 0.225000 0.845627 0.422059
v 0.450000 1.391714 0.025304
v 0.450000 1.259462 -0.156725
v 0.450000 0.845627 0.422059
v 0.450000 0.713376 0.240030
v -0.010862 0.565080 0.002117
v 0.010624 0.779067 0.068243
v 0.187516 0.356493 0.612660
v 0.209002 0.570481 0.678785
v 0.224612 0.779067 -0.001286
v 0.203126 0.565080 -0.067413
v 0.422989 0.570481 0.609257
v 0.401503 0.356493 0.543131
v -0.450000 1.259462 -0.156725
v -0.450000 1.391714 0.025304
v -0.450000 0.713376 0.240030
v -0.450000 0.845627 0.422059
v -0.225000 1.391714 0.025304
v -0.225000 1.259462 -0.156725
v -0.225000 0.845627 0.422059
v -0.225000 0.713376 0.240030
v -0.228375 1.352527 -0.225269
v 0.228375 1.352527 -0.225269
v -0.228375 1.352527 0.231481
v 0.228375 1.352527 0.231481
v -0.228375 1.409621 -0.225269
v 0.228375 1.409621 -0.225269
v 0.228375 1.637996 0.231481
v 0.228375 1.523808 0.231481
v -0.228375 1.637996 0.231481
v -0.228375 1.523808 0.231481
v 0.114187 1.352527 0.231481
v -0.114188 1.352527 0.231481
v 0.228375 1.409621 -0.053988
v 0.228375 1.466715 -0.053988
v 0.228375 1.466715 0.060200
v 0.228375 1.523808 0.174387
v 0.228375 1.637996 0.060200
v 0.228375 1.637996 0.174387
v -0.228375 1.409621 -0.053988
v -0.228375 1.466715 -0.053988
v -0.228375 1.466715 0.060200
v -0.228375 1.637996 0.060200
v -0.228375 1.523808 0.174387
v -0.228375 1.580902 0.174387
v -0.228375 1.637996 0.174387
v 0.114187 1.466715 0.231481
v 0.057094 1.466715 0.231481
v -0.057094 1.466715 0.231481
v -0.114188 1.466715 0.231481
v 0.171281 1.523808 0.231481
v 0.057094 1.523808 0.231481
v -0.057094 1.523808 0.231481
v -0.171281 1.523808 0.231481
v 0.171281 1.580902 0.231481
v 0.057094 1.580902 0.231481
v -0.057094 1.580902 0.231481
v -0.171281 1.580902 0.231481
v 0.171281 1.637996 0.231481
v -0.171281 1.637996 0.231481
v 0.171281 1.695090 0.231481
v -0.171281 1.695090 0.231481
v 0.114187 1.352527 0.239582
v -0.114188 1.352527 0.239582
v 0.057094 1.409621 0.239582
v -0.057094 1.409621 0.239582
v 0.114187 1.466715 0.239582
v 0.057094 1.466715 0.239582
v -0.057094 1.466715 0.239582
v -0.114188 1.466715 0.239582
v 0.057094 1.523808 0.239582
v -0.057094 1.523808 0.239582
v -0.171281 1.637996 0.239582
v 0.171281 1.637996 0.239582
v -0.171281 1.695090 0.239582
v 0.171281 1.695090 0.239582
v 0.236476 1.409621 -0.225269
v 0.236476 1.637996 0.231481
v 0.236476 1.523808 0.231481
v 0.236476 1.409621 -0.053988
v 0.236476 1.466715 -0.053988
v 0.236476 1.466715 0.060200
v 0.236476 1.523808 0.174387
v 0.236476 1.637996 0.174387
v 0.236476 1.637996 0.060200
v 0.236476 1.695090 0.239582
v 0.236476 1.637996 0.239582
v -0.236476 1.637996 0.231481
v -0.236476 1.523808 0.231481
v -0.236476 1.409621 -0.053988
v -0.236476 1.466715 -0.053988
v -0.236476 1.466715 0.060200
v -0.236476 1.637996 0.060200
v -0.236476 1.523808 0.174387
v -0.236476 1.637996 0.174387
v -0.236476 1.637996 0.239582
v 0.236476 1.466715 -0.233370
v 0.236476 1.637996 -0.233370
v 0.236476 1.409621 -0.233370
v 0.236476 1.809277 -0.233370
v -0.236476 1.409621 -0.233370
v 0.236476 1.817378 0.239582
v -0.236476 1.817378 0.239582
v -0.236476 1.817378 -0.233370
v 0.236476 1.817378 -0.233370
v 0.057094 1.409621 0.223532
v -0.057094 1.409621 0.223532
v 0.057094 1.466715 0.223532
v -0.057094 1.466715 0.223532
v 0.171281 1.523808 0.223532
v 0.057094 1.523808 0.223532
v -0.057094 1.523808 0.223532
v -0.171281 1.523808 0.223532
v 0.171281 1.580902 0.223532
v 0.057094 1.580902 0.223532
v -0.057094 1.580902 0.223532
v -0.171281 1.580902 0.223532
vn -0.0955 0.9511 0.2939
vn -0.9511 -0.0000 -0.3090
vn 0.0955 -0.9511 -0.2939
vn 0.9511 -0.0000 0.3090
vn 0.2939 0.3090 -0.9045
vn -0.2939 -0.3090 0.9045
vn -0.0000 -0.0000 1.0000
vn -1.0000 -0.0000 -0.0000
vn -0.0000 -0.0000 -1.0000
vn 1.0000 -0.0000 -0.0000
vn -0.0000 1.0000 -0.0000
vn -0.0000 -1.0000 -0.0000
vn -0.0000 0.5878 0.8090
vn -0.0000 -0.5878 -0.8090
vn -0.0000 0.8090 -0.5878
vn -0.0000 -0.8090 0.5878
vn 0.0955 0.9511 0.2939
vn -0.9511 -0.0000 0.3090
vn -0.0955 -0.9511 -0.2939
vn 0.9511 -0.0000 -0.3090
vn -0.2939 0.3090 -0.9045
vn 0.2939 -0.3090 0.9045
vt 0.062500 0.500000
vt 0.125000 0.500000
vt 0.125000 0.687500
vt 0.062500 0.687500
vt 0.000000 0.500000
vt 0.000000 0.687500
vt 0.187500 0.500000
vt 0.250000 0.500000
vt 0.250000 0.687500
vt 0.187500 0.687500
vt 0.125000 0.750000
vt 0.062500 0.750000
vt 0.187500 0.750000
vt 0.312500 0.500000
vt 0.437500 0.500000
vt 0.437500 0.687500
vt 0.312500 0.687500
vt 0.500000 0.500000
vt 0.625000 0.500000
vt 0.625000 0.687500
vt 0.500000 0.687500
vt 0.437500 0.750000
vt 0.312500 0.750000
vt 0.562500 0.687500
vt 0.562500 0.750000
vt 0.562500 0.000000
vt 0.625000 0.000000
vt 0.625000 0.187500
vt 0.562500 0.187500
vt 0.500000 0.000000
vt 0.500000 0.187500
vt 0.687500 0.000000
vt 0.750000 0.000000
vt 0.750000 0.187500
vt 0.687500 0.187500
vt 0.625000 0.250000
vt 0.562500 0.250000
vt 0.687500 0.250000
vt 0.312500 0.000000
vt 0.375000 0.000000
vt 0.375000 0.187500
vt 0.312500 0.187500
vt 0.250000 0.000000
vt 0.250000 0.187500
vt 0.437500 0.000000
vt 0.437500 0.187500
vt 0.375000 0.250000
vt 0.312500 0.250000
vt 0.437500 0.250000
vt 0.687500 0.500000
vt 0.750000 0.500000
vt 0.750000 0.687500
vt 0.687500 0.687500
vt 0.812500 0.500000
vt 0.875000 0.500000
vt 0.875000 0.687500
vt 0.812500 0.687500
vt 0.750000 0.750000
vt 0.687500 0.750000
vt 0.812500 0.750000
vt 0.625000 0.750000
vt 0.625000 0.656250
vt 0.646484 0.679688
vt 0.644531 0.703125
vt 0.761719 0.796875
vt 0.775391 0.820312
vt 0.796875 0.843750
vt 0.781250 0.812500
vt 0.863281 0.703125
vt 0.869141 0.695312
vt 0.833984 0.867188
vt 0.806641 0.820312
vt 0.826172 0.773438
vt 0.855469 0.796875
vt 0.828125 0.906250
vt 0.751953 0.789062
vt 0.742188 0.781250
vt 0.695312 0.718750
vt 0.701172 0.710938
vt 0.859375 0.531250
vt 0.859375 0.562500
vt 0.765625 0.562500
vt 0.765625 0.656250
vt 0.671875 0.656250
vt 0.671875 0.625000
vt 0.671875 0.593750
vt 0.625000 0.593750
vt 1.000000 0.750000
vt 1.000000 0.531250
vt 0.771484 0.804688
vt 0.707031 0.703125
vt 0.712891 0.695312
vt 0.802734 0.867188
vt 0.789062 0.843750
vt 0.648438 0.656250
vt 0.687500 0.625000
vt 0.679688 0.656250
vt 0.650391 0.632812
vt 0.812500 0.875000
vt 0.875000 1.000000
vt 0.875000 0.531250
vt 0.875000 0.562500
vt 0.875000 0.656250
vt 0.875000 0.750000
vt 1.000000 0.500000
s 0
f 4/1/1 7/2/1 5/3/1 2/4/1
f 3/5/2 4/1/2 2/4/2 1/6/2
f 8/7/3 3/8/3 1/9/3 6/10/3
f 7/2/4 8/7/4 6/10/4 5/3/4
f 6/11/5 1/12/5 2/4/5 5/3/5
f 7/10/6 4/3/6 3/11/6 8/13/6
f 12/14/7 15/15/7 13/16/7 10/17/7
f 11/8/8 12/14/8 10/17/8 9/9/8
f 16/18/9 11/19/9 9/20/9 14/21/9
f 15/15/10 16/18/10 14/21/10 13/16/10
f 14/22/11 9/23/11 10/17/11 13/16/11
f 15/24/12 12/16/12 11/22/12 16/25/12
f 20/26/13 23/27/13 21/28/13 18/29/13
f 19/30/8 20/26/8 18/29/8 17/31/8
f 24/32/14 19/33/14 17/34/14 22/35/14
f 23/27/10 24/32/10 22/35/10 21/28/10
f 22/36/15 17/37/15 18/29/15 21/28/15
f 23/35/16 20/28/16 19/36/16 24/38/16
f 28/39/17 31/40/17 29/41/17 26/42/17
f 27/43/18 28/39/18 26/42/18 25/44/18
f 32/45/19 27/30/19 25/31/19 30/46/19
f 31/40/20 32/45/20 30/46/20 29/41/20
f 30/47/21 25/48/21 26/42/21 29/41/21
f 31/46/22 28/41/22 27/47/22 32/49/22
f 36/50/13 39/51/13 37/52/13 34/53/13
f 35/19/8 36/50/8 34/53/8 33/20/8
f 40/54/14 35/55/14 33/56/14 38/57/14
f 39/51/10 40/54/10 38/57/10 37/52/10
f 38/58/15 33/59/15 34/53/15 37/52/15
f 39/57/16 36/52/16 35/58/16 40/60/16
f 122/61/7 115/62/7 92/63/7 94/64/7 95/65/7 93/66/7 106/67/7 105/68/7 121/58/7
f 54/69/7 53/70/7 99/70/7 100/69/7
f 56/71/9 58/72/9 103/72/9 102/71/9
f 47/67/12 97/67/12 106/67/12 93/66/12 78/66/12
f 57/73/12 104/73/12 103/72/12 58/72/12
f 54/69/12 100/69/12 101/74/12 55/74/12
f 48/75/12 56/71/12 102/71/12 98/75/12
f 71/76/7 75/77/7 76/78/7 72/79/7
f 59/80/7 60/81/7 110/81/7 109/80/7
f 61/82/7 62/83/7 112/83/7 111/82/7
f 60/81/12 61/82/12 111/82/12 110/81/12
f 65/84/9 64/85/9 63/86/9 113/86/9 114/84/9
f 63/86/12 50/87/12 108/87/12 113/86/12
f 50/87/7 49/62/7 107/62/7 108/87/7
f 123/88/8 120/89/8 109/80/8 110/81/8 111/82/8 112/83/8 114/84/8 113/86/8 108/87/8 107/62/8 115/62/8 122/61/8
f 47/67/7 48/75/7 98/75/7 97/67/7
f 125/90/7 127/65/7 128/91/7 126/92/7
f 67/65/10 71/76/10 90/76/10 87/65/10
f 72/79/8 76/78/8 135/78/8 131/79/8
f 129/93/7 133/94/7 134/77/7 130/76/7
f 76/78/12 77/95/12 136/95/12 135/78/12
f 87/65/7 90/76/7 91/79/7 88/91/7
f 52/96/7 69/97/7 68/91/7 72/79/7 73/98/7 77/95/7 76/78/7 75/77/7 74/94/7 70/93/7 71/76/7 67/65/7 66/94/7 51/99/7 44/100/7 48/75/7 47/67/7 78/66/7 80/65/7 81/64/7 79/63/7 49/62/7 50/87/7 43/19/7
f 69/97/8 52/96/8 83/96/8 89/97/8
f 79/63/10 81/64/10 94/64/10 92/63/10
f 62/83/12 65/84/12 114/84/12 112/83/12
f 71/76/11 72/79/11 91/79/11 90/76/11
f 68/91/11 69/97/11 89/97/11 88/91/11
f 67/65/12 87/65/12 88/91/12 68/91/12 128/91/12 127/65/12
f 51/99/10 66/94/10 86/94/10 82/99/10
f 85/92/11 84/90/11 125/90/11 126/92/11
f 115/62/12 107/62/12 49/62/12 79/63/12 92/63/12
f 72/79/8 68/91/8 88/91/8 91/79/8
f 80/65/8 78/66/8 93/66/8 95/65/8
f 66/94/11 67/65/11 87/65/11 86/94/11
f 67/65/8 127/65/8 125/90/8 84/90/8 87/65/8
f 96/101/10 118/101/10 116/102/10 117/103/10 119/104/10 124/104/10 121/58/10 105/68/10 106/67/10 97/67/10 98/75/10 102/71/10 103/72/10 104/73/10 101/74/10 100/69/10 99/70/10
f 122/61/11 121/58/11 124/104/11 123/88/11
f 124/104/9 119/104/9 117/103/9 116/102/9 118/101/9 120/89/9 123/88/9
f 57/73/7 55/74/7 101/74/7 104/73/7
f 53/70/12 46/101/12 45/89/12 59/80/12 109/80/12 120/89/12 118/101/12 96/101/12 99/70/12
f 80/65/12 95/65/12 94/64/12 81/64/12
f 68/91/10 88/91/10 85/92/10 126/92/10 128/91/10
f 77/95/10 73/98/10 132/98/10 136/95/10
f 73/98/11 72/79/11 131/79/11 132/98/11
f 70/93/11 129/93/11 130/76/11 71/76/11
f 70/93/8 74/94/8 133/94/8 129/93/8
f 75/77/10 71/76/10 130/76/10 134/77/10
f 131/79/7 135/78/7 136/95/7 132/98/7
f 74/94/12 75/77/12 134/77/12 133/94/12
f 41/105/8 43/19/8 50/87/8 63/86/8 64/85/8 65/84/8 62/83/8 61/82/8 60/81/8 59/80/8 45/89/8
f 44/100/10 42/55/10 46/101/10 53/70/10 54/69/10 55/74/10 57/73/10 58/72/10 56/71/10 48/75/10
f 45/89/9 46/101/9 42/55/9 41/105/9
f 44/100/12 51/99/12 82/99/12 83/96/12 52/96/12 43/19/12 41/105/12 42/55/12
f 82/99/7 86/94/7 87/65/7 84/90/7 85/92/7 88/91/7 89/97/7 83/96/7
